# File created by Blade
# Date/Time:  Tue Apr 07 20:57:09 2015
# Frame Rate: 120.000 fps
#------------------------------------------------------
:FULLY-SPECIFIED
:DEGREES
1070
root -1.338321 33.269616 5.474735 374.419480 2.667911 -715.587272
Spine -10.599828 -4.995838 -5.817046
Head 6.254086 -3.420166 -1.570771
LeftShoulder -18.621824 38.731514 20.609611
LeftArm 61.693438 -49.785241 -61.309494
LeftForeArm 6.540228 -0.000000 -2.502268
LeftHand 5.834359 -0.000000 7.603132
LeftHandThumb1 -26.253704 0.000000 33.147579
RightShoulder -7.000621 3.181337 -29.217859
RightArm 11.719138 15.634927 47.043142
RightForeArm -10.764010 -0.000000 2.168026
RightHand 5.504842 -0.000000 1.485796
RightHandThumb1 -24.326973 -0.000000 -32.862282
LeftUpLeg -22.808759 -12.823000 -2.203051
LeftLeg 29.295297 -0.000000 -0.000000
LeftFoot -9.776405 4.166839 -23.709711
LeftToeBase -11.526757 -0.000000 0.000000
RightUpLeg -10.715740 1.662408 -5.356657
RightLeg 6.096279 -0.000000 -0.000000
RightFoot -17.975923 -9.087207 16.708280
RightToeBase -4.616298 -0.000000 0.000000
1071
root -1.360612 33.267982 5.462537 374.704652 2.879734 -715.813552
Spine -10.991210 -5.083488 -5.440041
Head 6.193458 -3.429984 -1.591132
LeftShoulder -18.662266 38.736481 20.578037
LeftArm 61.635714 -49.704908 -61.274796
LeftForeArm 6.491439 -0.000000 -2.489139
LeftHand 5.670054 -0.000000 7.665489
LeftHandThumb1 -26.253704 0.000000 33.147579
RightShoulder -7.032119 3.221271 -29.260398
RightArm 11.679749 15.731805 47.053229
RightForeArm -10.657590 -0.000000 2.170763
RightHand 5.654725 -0.000000 1.307943
RightHandThumb1 -24.326973 -0.000000 -32.862282
LeftUpLeg -22.341962 -13.007724 -2.066626
LeftLeg 28.082705 -0.000000 -0.000000
LeftFoot -8.530937 5.585048 -22.182158
LeftToeBase -14.324446 -0.000000 0.000000
RightUpLeg -10.688472 2.210314 -5.244299
RightLeg 5.599096 -0.000000 -0.000000
RightFoot -18.251335 -8.511827 17.582923
RightToeBase -4.525817 -0.000000 0.000000
1072
root -1.376335 33.261780 5.457285 374.899930 3.107408 -716.024640
Spine -11.289107 -5.179816 -5.063001
Head 6.129554 -3.402039 -1.645682
LeftShoulder -18.660852 38.744148 20.573315
LeftArm 61.719861 -49.740173 -61.476910
LeftForeArm 6.682164 0.000000 -2.483678
LeftHand 5.522883 -0.000000 7.713052
LeftHandThumb1 -26.253704 0.000000 33.147579
RightShoulder -7.043299 3.256109 -29.313957
RightArm 11.633240 15.782972 47.027055
RightForeArm -10.622534 -0.000000 2.159609
RightHand 5.991052 0.000000 1.019744
RightHandThumb1 -24.326973 -0.000000 -32.862282
LeftUpLeg -21.758747 -13.132066 -1.978572
LeftLeg 26.841141 -0.000000 -0.000000
LeftFoot -7.815572 6.917995 -20.267365
LeftToeBase -18.159389 -0.000000 0.000000
RightUpLeg -10.692287 2.261023 -5.081795
RightLeg 5.372435 -0.000000 -0.000000
RightFoot -18.359317 -7.486199 18.404180
RightToeBase -5.120577 -0.000000 0.000000
1073
root -1.393424 33.255028 5.459196 375.026149 3.312273 -716.274225
Spine -11.501940 -5.245059 -4.678668
Head 6.011022 -3.393203 -1.640240
LeftShoulder -18.689869 38.745144 20.564376
LeftArm 61.830090 -49.782183 -61.648820
LeftForeArm 6.874029 0.000000 -2.570997
LeftHand 5.488673 -0.000000 7.754256
LeftHandThumb1 -26.253704 0.000000 33.147579
RightShoulder -7.087262 3.331366 -29.335813
RightArm 11.610158 15.793795 46.986217
RightForeArm -10.662727 -0.000000 2.105094
RightHand 6.132085 -0.000000 0.713322
RightHandThumb1 -24.326973 -0.000000 -32.862282
LeftUpLeg -21.113101 -13.118807 -1.851192
LeftLeg 25.461474 -0.000000 -0.000000
LeftFoot -7.639596 7.896763 -18.942024
LeftToeBase -18.795957 -0.000000 0.000000
RightUpLeg -10.646964 2.254664 -4.848796
RightLeg 5.168638 -0.000000 -0.000000
RightFoot -18.460214 -6.676620 18.757715
RightToeBase -4.839122 -0.000000 0.000000
1074
root -1.411559 33.246537 5.464960 375.102377 3.520681 -716.538861
Spine -11.658220 -5.316375 -4.290435
Head 5.872821 -3.429251 -1.578799
LeftShoulder -18.691252 38.756032 20.597874
LeftArm 61.834692 -49.818711 -61.730396
LeftForeArm 7.019558 -0.000000 -2.672672
LeftHand 5.528846 -0.000000 7.511126
LeftHandThumb1 -26.253704 0.000000 33.147579
RightShoulder -7.127479 3.322656 -29.354638
RightArm 11.662041 15.837482 46.983654
RightForeArm -10.840709 -0.000000 2.032639
RightHand 6.200704 -0.000000 0.342304
RightHandThumb1 -24.326973 -0.000000 -32.862282
LeftUpLeg -20.368558 -13.029192 -1.693617
LeftLeg 23.807191 -0.000000 -0.000000
LeftFoot -7.325759 8.790771 -17.664626
LeftToeBase -18.978597 -0.000000 0.000000
RightUpLeg -10.565897 2.221579 -4.585726
RightLeg 4.964555 -0.000000 -0.000000
RightFoot -18.320212 -5.757661 19.351545
RightToeBase -5.337539 -0.000000 0.000000
